# xmcd
#
# Track frame offsets: 
#        150
#        12732
#        21593
#        30463
#        39017
#
# Disc length: 623 seconds
#
# Revision: 0
# Processed by: cddbd v1.5.2PL0 Copyright (c) Steve Scherf et al.
# Submitted via: ExactAudioCopy v1.3
#
DISCID=34026d05
DTITLE=Bobby Helms - Jingle Bell Rock!
DYEAR=2004
DGENRE=
TTITLE0=Jingle Bell ROCK!
TTITLE1=Jingle Bell Rock (Comet Version)
TTITLE2=Jingle Bell Rock (Cupid Version)
TTITLE3=Jingle Bell Rock (Blitzen Version)
TTITLE4=I Wanna Go To Santa Claus Land
EXTD=
EXTT0=
EXTT1=
EXTT2=
EXTT3=
EXTT4=
PLAYORDER=
